<svg xmlns="http://www.w3.org/2000/svg" viewBox="0 0 213 234.03"><symbol id="crest3"><title>Crest3</title><g id="Layer_2" data-name="Layer 2"><g id="Layer_3" data-name="Layer 3"><path class="cls-1" fill="var(--crest-color-1)" d="M26.72,121.48,92.57,110A6.56,6.56,0,0,0,98,103.57V16.64a6.56,6.56,0,0,0-6.56-6.56H12.49A6.56,6.56,0,0,0,6,17.51L19.1,115.89A6.55,6.55,0,0,0,26.72,121.48Z"/><polygon class="cls-1" fill="var(--crest-color-2)" points="25 125.08 98 125.08 92.55 226.81 61.5 205.69 44.39 182.15 31 154.85 24.2 136.37 25 125.08"/><polygon fill="var(--crest-color-1)" class="cls-1" points="188.2 125.08 115.2 125.08 120.65 226.81 151.7 205.69 168.81 182.15 182.19 154.85 189 136.37 188.2 125.08"/><path class="cls-1" fill="var(--crest-color-2)" d="M187.28,116.48,121.43,105A6.56,6.56,0,0,1,116,98.57V11.64a6.56,6.56,0,0,1,6.56-6.56h78.95a6.56,6.56,0,0,1,6.5,7.43L194.9,110.89A6.55,6.55,0,0,1,187.28,116.48Z"/><path class="cls-2" stroke-width="10" stroke="var(--crest-color-3)" fill="none" d="M5,6.08,208,5c0,123.81-45.17,224-101,224C50.62,229,5,129.31,5,6.08Z"/><line stroke-width="32" stroke="var(--crest-color-3)" class="cls-3" x1="106" y1="5.08" x2="106" y2="229.08"/><line stroke-width="32" stroke="var(--crest-color-3)" class="cls-3" x1="18" y1="117.08" x2="194" y2="117.08"/></g></g></symbol></svg>
