<svg xmlns="http://www.w3.org/2000/svg" viewBox="0 0 227 227"><symbol id="crest2"><title>Crest2</title><g id="Layer_2" data-name="Layer 2"><g id="Layer_2-2" data-name="Layer 2"><circle fill="var(--crest-color-1)" stroke="var(--crest-color-3)" stroke-width="8" class="cls-1" cx="113.5" cy="113.5" r="108.5"/><path fill="none" stroke="var(--crest-color-3)" stroke-width="8" class="cls-2" d="M33,186,31,44.32a2.72,2.72,0,0,1,1-2.15l25.6-20.65a2.72,2.72,0,0,1,4.43,2.09L64,208a2.71,2.71,0,0,0,1.9,2.56l29.55,9.29A2.73,2.73,0,0,0,99,217.26L97,8.66a2.72,2.72,0,0,1,2.64-2.74l26.57-.83A2.72,2.72,0,0,1,129,7.77l2.9,210.15a2.73,2.73,0,0,0,3.81,2.46l24.63-10.68a2.72,2.72,0,0,0,1.64-2.47l1.92-184.62a2.72,2.72,0,0,1,4.43-2.09L194,41.17a2.72,2.72,0,0,1,1,2.15L193,185"/><polygon fill="var(--crest-color-2)" class="cls-3" points="183.87 97.35 148.77 131.82 157.26 180.27 113.64 157.54 70.18 180.59 78.31 132.08 42.96 97.87 91.62 90.61 113.23 46.42 135.16 90.45 183.87 97.35"/></g></g></symbol></svg>
