<svg xmlns="http://www.w3.org/2000/svg" viewBox="0 0 212 314"><symbol id="myicon"><defs><style>.cls-1,.cls-2,.cls-6{fill:none;}.cls-1,.cls-2,.cls-5{stroke:#fff;}.cls-1,.cls-2,.cls-5,.cls-6{stroke-miterlimit:10;}.cls-1,.cls-5{stroke-width:9px;}.cls-2,.cls-6{stroke-width:7px;fill-rule:evenodd;}.cls-3,.cls-4,.cls-5,.cls-8{fill:#fff;}.cls-4,.cls-8{font-size:41px;font-family:TwCenMT-CondensedExtraBold, Tw Cen MT Condensed Extra Bold;}.cls-6{stroke:#000;}.cls-6,.cls-7,.cls-8{opacity:0;}.cls-9{letter-spacing:-0.02em;}.cls-10{letter-spacing:-0.02em;}</style></defs><title>Asset 1</title><g id="Layer_2" data-name="Layer 2"><g id="Layer_1-2" data-name="Layer 1"><path class="cls-1" d="M4.5,154.5V31.11A26.61,26.61,0,0,1,31.11,4.5H180.89A26.61,26.61,0,0,1,207.5,31.11V154.5Z"/><path class="cls-2" d="M76.5,154a30.5,30.5,0,0,1,61,0Z"/><path class="cls-3" d="M142,10V46H72V10h70m7-7H65V53h84V3Z"/><text class="cls-4" transform="translate(79.2 103.82)">FUT</text><path class="cls-5" d="M4.5,154V277.39A26.61,26.61,0,0,0,31.11,304H180.89a26.61,26.61,0,0,0,26.61-26.61V154Z"/><path class="cls-6" d="M76.5,154.5a30.5,30.5,0,0,0,61,0Z"/><g class="cls-7"><path d="M142,262.5V307H72V262.5h70m7-7H65V314h84V255.5Z"/></g><text class="cls-8" transform="translate(39.59 228.82)"><tspan class="cls-9">F</tspan><tspan x="15.46" y="0">AN</tspan><tspan class="cls-10" x="62.64" y="0">T</tspan><tspan x="78.14" y="0">ASY</tspan></text></g></g></symbol></svg>
